<svg style="position: absolute; width: 0; height: 0; overflow: hidden;" version="1.1" xmlns="http://www.w3.org/2000/svg" xmlns:xlink="http://www.w3.org/1999/xlink">
<metadata>
Social Icons, based on Brand Icons from Font Awesome v4.7 (http://fontawesome.io/)
Font Awesome font is licensed under the SIL OFL 1.1 (http://scripts.sil.org/OFL)
Created by ThemeZee with IcoMoon (https://icomoon.io/app/)
</metadata>
<defs>
<symbol id="icon-envelope-o" viewBox="0 0 14 14">
<title>envelope-o</title>
<path d="M13 11.75v-6c-0.164 0.187-0.344 0.359-0.539 0.516-1.117 0.859-2.242 1.734-3.328 2.641-0.586 0.492-1.313 1.094-2.125 1.094h-0.016c-0.813 0-1.539-0.602-2.125-1.094-1.086-0.906-2.211-1.781-3.328-2.641-0.195-0.156-0.375-0.328-0.539-0.516v6c0 0.133 0.117 0.25 0.25 0.25h11.5c0.133 0 0.25-0.117 0.25-0.25zM13 3.539c0-0.195 0.047-0.539-0.25-0.539h-11.5c-0.133 0-0.25 0.117-0.25 0.25 0 0.891 0.445 1.664 1.148 2.219 1.047 0.82 2.094 1.648 3.133 2.477 0.414 0.336 1.164 1.055 1.711 1.055h0.016c0.547 0 1.297-0.719 1.711-1.055 1.039-0.828 2.086-1.656 3.133-2.477 0.508-0.398 1.148-1.266 1.148-1.93zM14 3.25v8.5c0 0.688-0.563 1.25-1.25 1.25h-11.5c-0.688 0-1.25-0.563-1.25-1.25v-8.5c0-0.688 0.563-1.25 1.25-1.25h11.5c0.688 0 1.25 0.563 1.25 1.25z"></path>
</symbol>
<symbol id="icon-twitter" viewBox="0 0 13 14">
<title>twitter</title>
<path d="M12.656 3.188c-0.344 0.5-0.773 0.945-1.266 1.305 0.008 0.109 0.008 0.219 0.008 0.328 0 3.336-2.539 7.18-7.18 7.18-1.43 0-2.758-0.414-3.875-1.133 0.203 0.023 0.398 0.031 0.609 0.031 1.18 0 2.266-0.398 3.133-1.078-1.109-0.023-2.039-0.75-2.359-1.75 0.156 0.023 0.312 0.039 0.477 0.039 0.227 0 0.453-0.031 0.664-0.086-1.156-0.234-2.023-1.25-2.023-2.477v-0.031c0.336 0.187 0.727 0.305 1.141 0.32-0.68-0.453-1.125-1.227-1.125-2.102 0-0.469 0.125-0.898 0.344-1.273 1.242 1.531 3.109 2.531 5.203 2.641-0.039-0.187-0.062-0.383-0.062-0.578 0-1.391 1.125-2.523 2.523-2.523 0.727 0 1.383 0.305 1.844 0.797 0.57-0.109 1.117-0.32 1.602-0.609-0.187 0.586-0.586 1.078-1.109 1.391 0.508-0.055 1-0.195 1.453-0.391z"></path>
</symbol>
<symbol id="icon-facebook" viewBox="0 0 8 14">
<title>facebook</title>
<path d="M7.492 0.094v2.062h-1.227c-0.961 0-1.141 0.461-1.141 1.125v1.477h2.289l-0.305 2.313h-1.984v5.93h-2.391v-5.93h-1.992v-2.313h1.992v-1.703c0-1.977 1.211-3.055 2.977-3.055 0.844 0 1.57 0.062 1.781 0.094z"></path>
</symbol>
<symbol id="icon-github" viewBox="0 0 12 14">
<title>github</title>
<path d="M6 1c3.313 0 6 2.687 6 6 0 2.648-1.719 4.898-4.102 5.695-0.305 0.055-0.414-0.133-0.414-0.289 0-0.195 0.008-0.844 0.008-1.648 0-0.563-0.187-0.922-0.406-1.109 1.336-0.148 2.742-0.656 2.742-2.961 0-0.656-0.234-1.187-0.617-1.609 0.062-0.156 0.266-0.766-0.062-1.594-0.5-0.156-1.648 0.617-1.648 0.617-0.477-0.133-0.992-0.203-1.5-0.203s-1.023 0.070-1.5 0.203c0 0-1.148-0.773-1.648-0.617-0.328 0.828-0.125 1.438-0.062 1.594-0.383 0.422-0.617 0.953-0.617 1.609 0 2.297 1.398 2.812 2.734 2.961-0.172 0.156-0.328 0.422-0.383 0.805-0.344 0.156-1.219 0.422-1.742-0.5-0.328-0.57-0.922-0.617-0.922-0.617-0.586-0.008-0.039 0.367-0.039 0.367 0.391 0.18 0.664 0.875 0.664 0.875 0.352 1.070 2.023 0.711 2.023 0.711 0 0.5 0.008 0.969 0.008 1.117 0 0.156-0.109 0.344-0.414 0.289-2.383-0.797-4.102-3.047-4.102-5.695 0-3.313 2.687-6 6-6zM2.273 9.617c0.016-0.031-0.008-0.070-0.055-0.094-0.047-0.016-0.086-0.008-0.102 0.016-0.016 0.031 0.008 0.070 0.055 0.094 0.039 0.023 0.086 0.016 0.102-0.016zM2.516 9.883c0.031-0.023 0.023-0.078-0.016-0.125-0.039-0.039-0.094-0.055-0.125-0.023-0.031 0.023-0.023 0.078 0.016 0.125 0.039 0.039 0.094 0.055 0.125 0.023zM2.75 10.234c0.039-0.031 0.039-0.094 0-0.148-0.031-0.055-0.094-0.078-0.133-0.047-0.039 0.023-0.039 0.086 0 0.141s0.102 0.078 0.133 0.055zM3.078 10.562c0.031-0.031 0.016-0.102-0.031-0.148-0.055-0.055-0.125-0.062-0.156-0.023-0.039 0.031-0.023 0.102 0.031 0.148 0.055 0.055 0.125 0.062 0.156 0.023zM3.523 10.758c0.016-0.047-0.031-0.102-0.102-0.125-0.062-0.016-0.133 0.008-0.148 0.055s0.031 0.102 0.102 0.117c0.062 0.023 0.133 0 0.148-0.047zM4.016 10.797c0-0.055-0.062-0.094-0.133-0.086-0.070 0-0.125 0.039-0.125 0.086 0 0.055 0.055 0.094 0.133 0.086 0.070 0 0.125-0.039 0.125-0.086zM4.469 10.719c-0.008-0.047-0.070-0.078-0.141-0.070-0.070 0.016-0.117 0.062-0.109 0.117 0.008 0.047 0.070 0.078 0.141 0.062s0.117-0.062 0.109-0.109z"></path>
</symbol>
<symbol id="icon-feed" viewBox="0 0 11 14">
<title>feed</title>
<path d="M3 10.5c0 0.828-0.672 1.5-1.5 1.5s-1.5-0.672-1.5-1.5 0.672-1.5 1.5-1.5 1.5 0.672 1.5 1.5zM7 11.461c0.008 0.141-0.039 0.273-0.133 0.375-0.094 0.109-0.227 0.164-0.367 0.164h-1.055c-0.258 0-0.469-0.195-0.492-0.453-0.227-2.383-2.117-4.273-4.5-4.5-0.258-0.023-0.453-0.234-0.453-0.492v-1.055c0-0.141 0.055-0.273 0.164-0.367 0.086-0.086 0.211-0.133 0.336-0.133h0.039c1.664 0.133 3.234 0.859 4.414 2.047 1.187 1.18 1.914 2.75 2.047 4.414zM11 11.477c0.008 0.133-0.039 0.266-0.141 0.367-0.094 0.102-0.219 0.156-0.359 0.156h-1.117c-0.266 0-0.484-0.203-0.5-0.469-0.258-4.539-3.875-8.156-8.414-8.422-0.266-0.016-0.469-0.234-0.469-0.492v-1.117c0-0.141 0.055-0.266 0.156-0.359 0.094-0.094 0.219-0.141 0.344-0.141h0.023c2.734 0.141 5.305 1.289 7.242 3.234 1.945 1.937 3.094 4.508 3.234 7.242z"></path>
</symbol>
<symbol id="icon-google-plus" viewBox="0 0 18 14">
<title>google-plus</title>
<path d="M11.227 7.133c0 3.273-2.195 5.594-5.5 5.594-3.164 0-5.727-2.563-5.727-5.727s2.563-5.727 5.727-5.727c1.547 0 2.836 0.563 3.836 1.5l-1.555 1.492c-0.422-0.406-1.164-0.883-2.281-0.883-1.953 0-3.547 1.617-3.547 3.617s1.594 3.617 3.547 3.617c2.266 0 3.117-1.633 3.25-2.469h-3.25v-1.969h5.406c0.055 0.289 0.094 0.578 0.094 0.953zM18 6.18v1.641h-1.633v1.633h-1.641v-1.633h-1.633v-1.641h1.633v-1.633h1.641v1.633h1.633z"></path>
</symbol>
<symbol id="icon-linkedin" viewBox="0 0 12 14">
<title>linkedin</title>
<path d="M2.727 4.883v7.742h-2.578v-7.742h2.578zM2.891 2.492c0.008 0.742-0.555 1.336-1.453 1.336v0h-0.016c-0.867 0-1.422-0.594-1.422-1.336 0-0.758 0.578-1.336 1.453-1.336 0.883 0 1.43 0.578 1.438 1.336zM12 8.187v4.437h-2.57v-4.141c0-1.039-0.375-1.75-1.305-1.75-0.711 0-1.133 0.477-1.32 0.937-0.062 0.172-0.086 0.398-0.086 0.633v4.32h-2.57c0.031-7.016 0-7.742 0-7.742h2.57v1.125h-0.016c0.336-0.531 0.945-1.305 2.336-1.305 1.695 0 2.961 1.109 2.961 3.484z"></path>
</symbol>
<symbol id="icon-youtube" viewBox="0 0 12 14">
<title>youtube</title>
<path d="M7.586 9.719v1.648c0 0.352-0.102 0.523-0.305 0.523-0.117 0-0.234-0.055-0.352-0.172v-2.352c0.117-0.117 0.234-0.172 0.352-0.172 0.203 0 0.305 0.18 0.305 0.523zM10.227 9.727v0.359h-0.703v-0.359c0-0.352 0.117-0.531 0.352-0.531s0.352 0.18 0.352 0.531zM2.68 8.023h0.836v-0.734h-2.438v0.734h0.82v4.445h0.781v-4.445zM4.93 12.469h0.695v-3.859h-0.695v2.953c-0.156 0.219-0.305 0.328-0.445 0.328-0.094 0-0.148-0.055-0.164-0.164-0.008-0.023-0.008-0.109-0.008-0.273v-2.844h-0.695v3.055c0 0.273 0.023 0.453 0.062 0.57 0.062 0.195 0.227 0.289 0.453 0.289 0.25 0 0.516-0.156 0.797-0.477v0.422zM8.281 11.313v-1.539c0-0.359-0.016-0.617-0.070-0.773-0.086-0.289-0.281-0.438-0.555-0.438-0.258 0-0.5 0.141-0.727 0.422v-1.695h-0.695v5.18h0.695v-0.375c0.234 0.289 0.477 0.43 0.727 0.43 0.273 0 0.469-0.148 0.555-0.43 0.055-0.164 0.070-0.422 0.070-0.781zM10.922 11.234v-0.102h-0.711c0 0.281-0.008 0.438-0.016 0.477-0.039 0.187-0.141 0.281-0.312 0.281-0.242 0-0.359-0.18-0.359-0.539v-0.68h1.398v-0.805c0-0.414-0.070-0.711-0.211-0.906-0.203-0.266-0.477-0.398-0.828-0.398-0.359 0-0.633 0.133-0.836 0.398-0.148 0.195-0.219 0.492-0.219 0.906v1.352c0 0.414 0.078 0.719 0.227 0.906 0.203 0.266 0.477 0.398 0.844 0.398s0.656-0.141 0.844-0.414c0.086-0.125 0.148-0.266 0.164-0.422 0.016-0.070 0.016-0.227 0.016-0.453zM6.172 4.102v-1.641c0-0.359-0.102-0.539-0.336-0.539-0.227 0-0.336 0.18-0.336 0.539v1.641c0 0.359 0.109 0.547 0.336 0.547 0.234 0 0.336-0.187 0.336-0.547zM11.789 9.969c0 0.898-0.008 1.859-0.203 2.734-0.148 0.617-0.648 1.070-1.25 1.133-1.438 0.164-2.891 0.164-4.336 0.164s-2.898 0-4.336-0.164c-0.602-0.062-1.109-0.516-1.25-1.133-0.203-0.875-0.203-1.836-0.203-2.734v0c0-0.906 0.008-1.859 0.203-2.734 0.148-0.617 0.648-1.070 1.258-1.141 1.43-0.156 2.883-0.156 4.328-0.156s2.898 0 4.336 0.156c0.602 0.070 1.109 0.523 1.25 1.141 0.203 0.875 0.203 1.828 0.203 2.734zM3.992 0h0.797l-0.945 3.117v2.117h-0.781v-2.117c-0.070-0.383-0.227-0.93-0.477-1.656-0.172-0.484-0.344-0.977-0.508-1.461h0.828l0.555 2.055zM6.883 2.602v1.367c0 0.414-0.070 0.727-0.219 0.922-0.195 0.266-0.469 0.398-0.828 0.398-0.352 0-0.625-0.133-0.82-0.398-0.148-0.203-0.219-0.508-0.219-0.922v-1.367c0-0.414 0.070-0.719 0.219-0.914 0.195-0.266 0.469-0.398 0.82-0.398 0.359 0 0.633 0.133 0.828 0.398 0.148 0.195 0.219 0.5 0.219 0.914zM9.5 1.336v3.898h-0.711v-0.43c-0.281 0.328-0.547 0.484-0.805 0.484-0.227 0-0.391-0.094-0.461-0.289-0.039-0.117-0.062-0.305-0.062-0.586v-3.078h0.711v2.867c0 0.164 0 0.258 0.008 0.273 0.016 0.109 0.070 0.172 0.164 0.172 0.141 0 0.289-0.109 0.445-0.336v-2.977h0.711z"></path>
</symbol>
<symbol id="icon-xing" viewBox="0 0 11 14">
<title>xing</title>
<path d="M4.664 5.211c0 0-0.078 0.133-2.008 3.562-0.102 0.172-0.234 0.359-0.508 0.359h-1.867c-0.109 0-0.195-0.055-0.242-0.133s-0.055-0.18 0-0.281l1.977-3.5c0.008 0 0.008 0 0-0.008l-1.258-2.18c-0.055-0.102-0.062-0.211-0.008-0.289 0.047-0.078 0.141-0.117 0.25-0.117h1.867c0.281 0 0.422 0.187 0.516 0.352 1.273 2.227 1.281 2.234 1.281 2.234zM10.961 0.195c0.055 0.078 0.055 0.187 0 0.289l-4.125 7.297c-0.008 0-0.008 0.008 0 0.008l2.625 4.805c0.055 0.102 0.055 0.211 0.008 0.289-0.055 0.078-0.141 0.117-0.25 0.117h-1.867c-0.281 0-0.43-0.187-0.516-0.352-2.648-4.852-2.648-4.859-2.648-4.859s0.133-0.234 4.148-7.359c0.102-0.18 0.219-0.352 0.5-0.352h1.883c0.109 0 0.195 0.039 0.242 0.117z"></path>
</symbol>
<symbol id="icon-dropbox" viewBox="0 0 14 14">
<title>dropbox</title>
<path d="M3.141 5.523l3.859 2.383-2.672 2.227-3.828-2.492zM10.844 9.859v0.844l-3.828 2.289v0.008l-0.008-0.008-0.008 0.008v-0.008l-3.82-2.289v-0.844l1.148 0.75 2.672-2.219v-0.016l0.008 0.008 0.008-0.008v0.016l2.68 2.219zM4.328 0.922l2.672 2.227-3.859 2.375-2.641-2.109zM10.859 5.523l2.641 2.117-3.82 2.492-2.68-2.227zM9.68 0.922l3.82 2.492-2.641 2.109-3.859-2.375z"></path>
</symbol>
<symbol id="icon-instagram" viewBox="0 0 12 14">
<title>instagram</title>
<path d="M8 7c0-1.102-0.898-2-2-2s-2 0.898-2 2 0.898 2 2 2 2-0.898 2-2zM9.078 7c0 1.703-1.375 3.078-3.078 3.078s-3.078-1.375-3.078-3.078 1.375-3.078 3.078-3.078 3.078 1.375 3.078 3.078zM9.922 3.797c0 0.398-0.32 0.719-0.719 0.719s-0.719-0.32-0.719-0.719 0.32-0.719 0.719-0.719 0.719 0.32 0.719 0.719zM6 2.078c-0.875 0-2.75-0.070-3.539 0.242-0.273 0.109-0.477 0.242-0.688 0.453s-0.344 0.414-0.453 0.688c-0.312 0.789-0.242 2.664-0.242 3.539s-0.070 2.75 0.242 3.539c0.109 0.273 0.242 0.477 0.453 0.688s0.414 0.344 0.688 0.453c0.789 0.312 2.664 0.242 3.539 0.242s2.75 0.070 3.539-0.242c0.273-0.109 0.477-0.242 0.688-0.453s0.344-0.414 0.453-0.688c0.312-0.789 0.242-2.664 0.242-3.539s0.070-2.75-0.242-3.539c-0.109-0.273-0.242-0.477-0.453-0.688s-0.414-0.344-0.688-0.453c-0.789-0.312-2.664-0.242-3.539-0.242zM12 7c0 0.828 0.008 1.648-0.039 2.477-0.047 0.961-0.266 1.812-0.969 2.516s-1.555 0.922-2.516 0.969c-0.828 0.047-1.648 0.039-2.477 0.039s-1.648 0.008-2.477-0.039c-0.961-0.047-1.812-0.266-2.516-0.969s-0.922-1.555-0.969-2.516c-0.047-0.828-0.039-1.648-0.039-2.477s-0.008-1.648 0.039-2.477c0.047-0.961 0.266-1.812 0.969-2.516s1.555-0.922 2.516-0.969c0.828-0.047 1.648-0.039 2.477-0.039s1.648-0.008 2.477 0.039c0.961 0.047 1.812 0.266 2.516 0.969s0.922 1.555 0.969 2.516c0.047 0.828 0.039 1.648 0.039 2.477z"></path>
</symbol>
<symbol id="icon-flickr" viewBox="0 0 12 14">
<title>flickr</title>
<path d="M9.75 1c1.242 0 2.25 1.008 2.25 2.25v7.5c0 1.242-1.008 2.25-2.25 2.25h-7.5c-1.242 0-2.25-1.008-2.25-2.25v-7.5c0-1.242 1.008-2.25 2.25-2.25h7.5zM5.453 7c0-0.914-0.742-1.656-1.656-1.656s-1.656 0.742-1.656 1.656 0.742 1.656 1.656 1.656 1.656-0.742 1.656-1.656zM9.859 7c0-0.914-0.742-1.656-1.656-1.656s-1.656 0.742-1.656 1.656 0.742 1.656 1.656 1.656 1.656-0.742 1.656-1.656z"></path>
</symbol>
<symbol id="icon-bitbucket" viewBox="0 0 11 14">
<title>bitbucket</title>
<path d="M6.367 6.711c0.086 0.656-0.711 1.172-1.266 0.836-0.625-0.273-0.625-1.266-0.016-1.547 0.523-0.32 1.281 0.102 1.281 0.711zM7.234 6.547c-0.141-1.109-1.398-1.844-2.422-1.383-0.648 0.289-1.086 0.977-1.055 1.703 0.039 0.953 0.945 1.734 1.898 1.648s1.695-1.016 1.578-1.969zM9.102 2.313c-0.344-0.453-0.93-0.531-1.445-0.617-1.461-0.234-2.961-0.242-4.422 0.016-0.484 0.078-1.031 0.164-1.336 0.602 0.5 0.469 1.211 0.539 1.852 0.617 1.156 0.148 2.344 0.156 3.5 0.008 0.648-0.078 1.367-0.141 1.852-0.625zM9.547 10.398c-0.219 0.766-0.094 1.797-0.906 2.242-1.398 0.773-3.094 0.859-4.633 0.586-0.813-0.148-1.766-0.406-2.211-1.172-0.195-0.75-0.32-1.516-0.445-2.281l0.047-0.125 0.141-0.070c2.328 1.539 5.586 1.539 7.922 0 0.367 0.109 0.094 0.555 0.086 0.82zM10.961 2.891c-0.266 1.711-0.57 3.414-0.867 5.117-0.086 0.5-0.57 0.781-0.977 0.992-1.461 0.734-3.164 0.859-4.766 0.688-1.086-0.117-2.195-0.406-3.078-1.086-0.414-0.32-0.414-0.867-0.492-1.328-0.273-1.602-0.586-3.203-0.781-4.82 0.094-0.703 0.883-1.008 1.469-1.227 0.781-0.289 1.617-0.422 2.445-0.5 1.766-0.172 3.57-0.109 5.281 0.391 0.609 0.18 1.266 0.43 1.68 0.953 0.187 0.242 0.125 0.547 0.086 0.82z"></path>
</symbol>
<symbol id="icon-tumblr" viewBox="0 0 9 14">
<title>tumblr</title>
<path d="M7.375 10.383l0.625 1.852c-0.234 0.352-1.297 0.75-2.25 0.766-2.836 0.047-3.906-2.016-3.906-3.469v-4.25h-1.313v-1.68c1.969-0.711 2.445-2.492 2.555-3.508 0.008-0.062 0.062-0.094 0.094-0.094h1.906v3.313h2.602v1.969h-2.609v4.047c0 0.547 0.203 1.305 1.25 1.281 0.344-0.008 0.805-0.109 1.047-0.227z"></path>
</symbol>
<symbol id="icon-apple" viewBox="0 0 11 14">
<title>apple</title>
<path d="M10.883 9.492c-0.195 0.617-0.508 1.273-0.961 1.953-0.672 1.023-1.344 1.531-2.008 1.531-0.266 0-0.625-0.086-1.094-0.25-0.461-0.172-0.859-0.25-1.18-0.25-0.312 0-0.688 0.086-1.109 0.258-0.43 0.18-0.773 0.266-1.031 0.266-0.805 0-1.578-0.68-2.352-2.023-0.758-1.344-1.148-2.648-1.148-3.93 0-1.195 0.297-2.164 0.883-2.922 0.586-0.75 1.32-1.125 2.219-1.125 0.383 0 0.836 0.078 1.383 0.234 0.539 0.156 0.898 0.234 1.078 0.234 0.227 0 0.602-0.086 1.117-0.266 0.516-0.172 0.969-0.266 1.352-0.266 0.625 0 1.18 0.172 1.664 0.508 0.273 0.187 0.547 0.453 0.813 0.781-0.406 0.344-0.703 0.648-0.891 0.922-0.336 0.484-0.508 1.023-0.508 1.617 0 0.641 0.18 1.227 0.539 1.742s0.773 0.844 1.234 0.984zM7.945 0.328c0 0.32-0.078 0.68-0.227 1.062-0.156 0.391-0.398 0.75-0.727 1.078-0.281 0.281-0.563 0.469-0.844 0.563-0.18 0.055-0.445 0.102-0.813 0.133 0.016-0.773 0.219-1.445 0.609-2.008s1.047-0.945 1.953-1.156c0.016 0.070 0.031 0.125 0.039 0.172 0 0.055 0.008 0.102 0.008 0.156z"></path>
</symbol>
<symbol id="icon-dribbble" viewBox="0 0 12 14">
<title>dribbble</title>
<path d="M8 11.719c-0.078-0.453-0.375-2.016-1.094-3.891-0.008 0-0.023 0.008-0.031 0.008 0 0-3.039 1.062-4.023 3.203-0.047-0.039-0.117-0.086-0.117-0.086 0.891 0.727 2.023 1.172 3.266 1.172 0.711 0 1.383-0.148 2-0.406zM6.555 6.977c-0.125-0.289-0.266-0.578-0.414-0.867-2.641 0.789-5.172 0.727-5.258 0.727-0.008 0.055-0.008 0.109-0.008 0.164 0 1.313 0.5 2.516 1.313 3.422v0c1.398-2.492 4.164-3.383 4.164-3.383 0.070-0.023 0.141-0.039 0.203-0.062zM5.719 5.32c-0.891-1.578-1.836-2.859-1.906-2.953-1.43 0.672-2.492 1.992-2.828 3.578 0.133 0 2.273 0.023 4.734-0.625zM11.063 7.813c-0.109-0.031-1.539-0.484-3.195-0.227 0.672 1.852 0.945 3.359 1 3.664 1.148-0.773 1.961-2.008 2.195-3.438zM4.773 2.023c-0.008 0-0.008 0-0.016 0.008 0 0 0.008-0.008 0.016-0.008zM9.383 3.156c-0.898-0.797-2.086-1.281-3.383-1.281-0.414 0-0.82 0.055-1.211 0.148 0.078 0.102 1.047 1.375 1.922 2.984 1.93-0.719 2.656-1.828 2.672-1.852zM11.125 6.945c-0.016-1.211-0.445-2.328-1.164-3.203-0.016 0.016-0.836 1.203-2.859 2.031 0.117 0.242 0.234 0.492 0.344 0.742 0.039 0.086 0.070 0.18 0.109 0.266 1.766-0.227 3.508 0.156 3.57 0.164zM12 7c0 3.313-2.687 6-6 6s-6-2.687-6-6 2.687-6 6-6 6 2.687 6 6z"></path>
</symbol>
<symbol id="icon-skype" viewBox="0 0 12 14">
<title>skype</title>
<path d="M9.164 8.305c0-1.359-1.32-1.828-2.43-2.078l-0.813-0.187c-0.594-0.141-1.039-0.242-1.039-0.695 0-0.414 0.438-0.602 1.125-0.602 1.227 0 1.25 0.898 2.008 0.898 0.508 0 0.813-0.398 0.813-0.852 0-0.898-1.492-1.484-2.969-1.484-1.352 0-2.922 0.586-2.922 2.172 0 1.313 0.875 1.781 2.016 2.055l1.141 0.281c0.695 0.172 1.125 0.25 1.125 0.75 0 0.398-0.445 0.703-1.133 0.703-1.445 0-1.523-1.203-2.359-1.203-0.547 0-0.789 0.391-0.789 0.82 0 0.961 1.469 1.742 3.227 1.742 1.469 0 3-0.734 3-2.32zM12 10c0 1.656-1.344 3-3 3-0.688 0-1.32-0.234-1.828-0.625-0.375 0.078-0.773 0.125-1.172 0.125-3.039 0-5.5-2.461-5.5-5.5 0-0.398 0.047-0.797 0.125-1.172-0.391-0.508-0.625-1.141-0.625-1.828 0-1.656 1.344-3 3-3 0.688 0 1.32 0.234 1.828 0.625 0.375-0.078 0.773-0.125 1.172-0.125 3.039 0 5.5 2.461 5.5 5.5 0 0.398-0.047 0.797-0.125 1.172 0.391 0.508 0.625 1.141 0.625 1.828z"></path>
</symbol>
<symbol id="icon-foursquare" viewBox="0 0 10 14">
<title>foursquare</title>
<path d="M7.813 3.391l0.289-1.516c0.055-0.25-0.133-0.445-0.344-0.445h-5.562c-0.25 0-0.422 0.227-0.422 0.422v8.602c0 0.023 0.023 0.031 0.047 0.008 2.047-2.461 2.273-2.75 2.273-2.75 0.234-0.273 0.328-0.32 0.672-0.32h1.867c0.258 0 0.406-0.219 0.43-0.344s0.242-1.266 0.289-1.492-0.164-0.461-0.375-0.461h-2.297c-0.305 0-0.523-0.219-0.523-0.523v-0.328c0-0.305 0.219-0.516 0.523-0.516h2.703c0.187 0 0.398-0.172 0.43-0.336zM9.586 1.656c-0.289 1.406-1.156 5.852-1.234 6.172-0.094 0.367-0.234 1.008-1.125 1.008h-2.117c-0.086 0-0.094-0.008-0.172 0.078 0 0-0.055 0.062-3.328 3.859-0.258 0.297-0.68 0.242-0.836 0.18s-0.43-0.25-0.43-0.766v-11.016c0-0.453 0.281-1.172 1.234-1.172h6.938c1.016 0 1.289 0.578 1.070 1.656zM9.586 1.656l-1.234 6.172c0.078-0.32 0.945-4.766 1.234-6.172z"></path>
</symbol>
<symbol id="icon-vk" viewBox="0 0 15 14">
<title>vk</title>
<path d="M14.977 4.063c0.117 0.32-0.25 1.070-1.172 2.297-1.516 2.016-1.68 1.828-0.43 2.992 1.203 1.117 1.453 1.656 1.492 1.727 0 0 0.5 0.875-0.555 0.883l-2 0.031c-0.43 0.086-1-0.305-1-0.305-0.75-0.516-1.453-1.852-2-1.68 0 0-0.563 0.18-0.547 1.383 0.008 0.258-0.117 0.398-0.117 0.398s-0.141 0.148-0.414 0.172h-0.898c-1.977 0.125-3.719-1.695-3.719-1.695s-1.906-1.969-3.578-5.898c-0.109-0.258 0.008-0.383 0.008-0.383s0.117-0.148 0.445-0.148l2.141-0.016c0.203 0.031 0.344 0.141 0.344 0.141s0.125 0.086 0.187 0.25c0.352 0.875 0.805 1.672 0.805 1.672 0.781 1.609 1.313 1.883 1.617 1.719 0 0 0.398-0.242 0.312-2.188-0.031-0.703-0.227-1.023-0.227-1.023-0.18-0.242-0.516-0.312-0.664-0.336-0.117-0.016 0.078-0.297 0.336-0.422 0.383-0.187 1.062-0.195 1.867-0.187 0.633 0.008 0.813 0.047 1.055 0.102 0.742 0.18 0.492 0.867 0.492 2.523 0 0.531-0.102 1.273 0.281 1.516 0.164 0.109 0.57 0.016 1.57-1.688 0 0 0.469-0.813 0.836-1.758 0.062-0.172 0.195-0.242 0.195-0.242s0.125-0.070 0.297-0.047l2.25-0.016c0.68-0.086 0.789 0.227 0.789 0.227z"></path>
</symbol>
<symbol id="icon-wordpress" viewBox="0 0 14 14">
<title>wordpress</title>
<path d="M0.992 7c0-0.867 0.187-1.695 0.523-2.445l2.867 7.852c-2.008-0.977-3.391-3.031-3.391-5.406zM11.055 6.695c0 0.516-0.211 1.109-0.461 1.945l-0.594 2-2.172-6.453s0.359-0.023 0.688-0.062c0.32-0.039 0.281-0.516-0.039-0.492-0.977 0.070-1.602 0.078-1.602 0.078s-0.586-0.008-1.578-0.078c-0.328-0.023-0.367 0.469-0.039 0.492 0.305 0.031 0.625 0.062 0.625 0.062l0.937 2.563-1.313 3.938-2.188-6.5s0.359-0.023 0.688-0.062c0.32-0.039 0.281-0.516-0.039-0.492-0.969 0.070-1.602 0.078-1.602 0.078-0.109 0-0.242-0.008-0.383-0.008 1.070-1.633 2.914-2.711 5.016-2.711 1.563 0 2.984 0.602 4.055 1.578h-0.078c-0.586 0-1.008 0.508-1.008 1.062 0 0.492 0.289 0.906 0.594 1.406 0.234 0.398 0.492 0.914 0.492 1.656zM7.102 7.523l1.852 5.055c0.008 0.031 0.023 0.062 0.039 0.086-0.625 0.219-1.289 0.344-1.992 0.344-0.586 0-1.156-0.086-1.695-0.25zM12.266 4.117c0.469 0.859 0.742 1.836 0.742 2.883 0 2.219-1.203 4.148-2.992 5.188l1.836-5.297c0.305-0.875 0.461-1.547 0.461-2.156 0-0.219-0.016-0.422-0.047-0.617zM7 0c3.859 0 7 3.141 7 7s-3.141 7-7 7-7-3.141-7-7 3.141-7 7-7zM7 13.68c3.68 0 6.68-3 6.68-6.68s-3-6.68-6.68-6.68-6.68 3-6.68 6.68 3 6.68 6.68 6.68z"></path>
</symbol>
<symbol id="icon-stumbleupon" viewBox="0 0 15 14">
<title>stumbleupon</title>
<path d="M8.297 5.562v-0.922c0-0.438-0.359-0.797-0.797-0.797s-0.797 0.359-0.797 0.797v4.781c0 1.828-1.516 3.305-3.352 3.305-1.852 0-3.352-1.5-3.352-3.352v-2.078h2.563v2.047c0 0.445 0.359 0.797 0.797 0.797s0.797-0.352 0.797-0.797v-4.844c0-1.789 1.531-3.227 3.344-3.227 1.82 0 3.344 1.445 3.344 3.25v1.062l-1.523 0.453zM12.437 7.297h2.563v2.078c0 1.852-1.5 3.352-3.352 3.352-1.844 0-3.352-1.484-3.352-3.32v-2.094l1.023 0.477 1.523-0.453v2.109c0 0.438 0.359 0.789 0.797 0.789s0.797-0.352 0.797-0.789v-2.148z"></path>
</symbol>
<symbol id="icon-digg" viewBox="0 0 16 14">
<title>digg</title>
<path d="M2.563 2.203h1.594v7.68h-4.156v-5.445h2.563v-2.234zM2.563 8.602v-2.883h-0.961v2.883h0.961zM4.797 4.437v5.445h1.602v-5.445h-1.602zM4.797 2.203v1.594h1.602v-1.594h-1.602zM7.039 4.437h4.164v7.359h-4.164v-1.273h2.563v-0.641h-2.563v-5.445zM9.602 8.602v-2.883h-0.961v2.883h0.961zM11.844 4.437h4.156v7.359h-4.156v-1.273h2.555v-0.641h-2.555v-5.445zM14.398 8.602v-2.883h-0.961v2.883h0.961z"></path>
</symbol>
<symbol id="icon-behance" viewBox="0 0 16 14">
<title>behance</title>
<path d="M14.438 2.648h-3.992v0.969h3.992v-0.969zM12.469 5.977c-0.937 0-1.563 0.586-1.625 1.523h3.188c-0.086-0.945-0.578-1.523-1.563-1.523zM12.594 10.547c0.594 0 1.359-0.32 1.547-0.93h1.727c-0.531 1.633-1.633 2.398-3.336 2.398-2.25 0-3.648-1.523-3.648-3.742 0-2.141 1.477-3.773 3.648-3.773 2.234 0 3.469 1.758 3.469 3.867 0 0.125-0.008 0.25-0.016 0.367h-5.141c0 1.141 0.602 1.812 1.75 1.812zM2.164 10.156h2.313c0.883 0 1.602-0.312 1.602-1.305 0-1.008-0.602-1.406-1.555-1.406h-2.359v2.711zM2.164 5.961h2.195c0.773 0 1.32-0.336 1.32-1.172 0-0.906-0.703-1.125-1.484-1.125h-2.031v2.297zM0 1.984h4.641c1.688 0 3.148 0.477 3.148 2.438 0 0.992-0.461 1.633-1.344 2.055 1.211 0.344 1.797 1.258 1.797 2.492 0 2-1.68 2.859-3.469 2.859h-4.773v-9.844z"></path>
</symbol>
<symbol id="icon-spotify" viewBox="0 0 12 14">
<title>spotify</title>
<path d="M8.805 9.453c0-0.219-0.086-0.305-0.234-0.398-1.008-0.602-2.18-0.898-3.492-0.898-0.766 0-1.5 0.102-2.242 0.266-0.18 0.039-0.328 0.156-0.328 0.406 0 0.195 0.148 0.383 0.383 0.383 0.070 0 0.195-0.039 0.289-0.062 0.609-0.125 1.25-0.211 1.898-0.211 1.148 0 2.234 0.281 3.102 0.805 0.094 0.055 0.156 0.086 0.258 0.086 0.195 0 0.367-0.156 0.367-0.375zM9.555 7.773c0-0.211-0.078-0.359-0.273-0.477-1.195-0.711-2.711-1.102-4.281-1.102-1.008 0-1.695 0.141-2.367 0.328-0.25 0.070-0.375 0.242-0.375 0.5s0.211 0.469 0.469 0.469c0.109 0 0.172-0.031 0.289-0.062 0.547-0.148 1.203-0.258 1.961-0.258 1.484 0 2.836 0.391 3.812 0.969 0.086 0.047 0.172 0.102 0.297 0.102 0.266 0 0.469-0.211 0.469-0.469zM10.398 5.836c0-0.289-0.125-0.438-0.312-0.547-1.352-0.789-3.203-1.156-4.969-1.156-1.039 0-1.992 0.117-2.844 0.367-0.219 0.062-0.422 0.25-0.422 0.578 0 0.32 0.242 0.57 0.563 0.57 0.117 0 0.227-0.039 0.312-0.062 0.758-0.211 1.578-0.289 2.398-0.289 1.625 0 3.313 0.359 4.398 1.008 0.109 0.062 0.187 0.094 0.312 0.094 0.297 0 0.563-0.234 0.563-0.563zM12 7c0 3.313-2.687 6-6 6s-6-2.687-6-6 2.687-6 6-6 6 2.687 6 6z"></path>
</symbol>
<symbol id="icon-deviantart" viewBox="0 0 8 14">
<title>deviantart</title>
<path d="M8 2.367l-2.367 4.547 0.187 0.242h2.18v3.242h-3.961l-0.344 0.234-1.109 2.133c-0.008 0-0.219 0.219-0.234 0.234h-2.352v-2.367l2.367-4.555-0.187-0.234h-2.18v-3.242h3.961l0.344-0.234 1.109-2.133c0.008 0 0.219-0.219 0.234-0.234h2.352v2.367z"></path>
</symbol>
<symbol id="icon-soundcloud" viewBox="0 0 18 14">
<title>soundcloud</title>
<path d="M6.125 10.719l0.125-1.883-0.125-4.086c-0.008-0.102-0.086-0.187-0.187-0.187-0.094 0-0.18 0.086-0.18 0.187l-0.109 4.086 0.109 1.883c0.008 0.102 0.086 0.18 0.18 0.18 0.102 0 0.18-0.078 0.187-0.18zM8.438 10.492l0.086-1.648-0.094-4.578c0-0.078-0.039-0.148-0.102-0.187-0.039-0.023-0.078-0.039-0.125-0.039s-0.086 0.016-0.125 0.039c-0.062 0.039-0.102 0.109-0.102 0.187l-0.008 0.047-0.078 4.523s0 0.008 0.086 1.844v0.008c0 0.047 0.016 0.094 0.047 0.133 0.047 0.055 0.109 0.086 0.18 0.086 0.062 0 0.117-0.031 0.156-0.070 0.047-0.039 0.070-0.094 0.070-0.156zM0.273 7.836l0.156 1-0.156 0.984c-0.008 0.039-0.031 0.070-0.070 0.070s-0.062-0.031-0.070-0.070l-0.133-0.984 0.133-1c0.008-0.039 0.031-0.070 0.070-0.070s0.062 0.031 0.070 0.070zM0.945 7.219l0.203 1.617-0.203 1.586c-0.008 0.039-0.039 0.070-0.078 0.070s-0.070-0.031-0.070-0.078l-0.18-1.578 0.18-1.617c0-0.039 0.031-0.070 0.070-0.070s0.070 0.031 0.078 0.070zM3.133 10.758v0 0zM1.664 6.922l0.195 1.914-0.195 1.852c0 0.047-0.039 0.086-0.086 0.086s-0.086-0.039-0.094-0.086l-0.164-1.852 0.164-1.914c0.008-0.055 0.047-0.094 0.094-0.094s0.086 0.039 0.086 0.094zM2.398 6.867l0.18 1.969-0.18 1.906c-0.008 0.062-0.055 0.102-0.109 0.102s-0.102-0.039-0.102-0.102l-0.164-1.906 0.164-1.969c0-0.062 0.047-0.102 0.102-0.102s0.102 0.039 0.109 0.102zM3.133 7.008l0.164 1.828-0.164 1.922c-0.008 0.070-0.062 0.125-0.125 0.125s-0.117-0.055-0.117-0.125l-0.156-1.922 0.156-1.828c0-0.062 0.055-0.117 0.117-0.117s0.117 0.055 0.125 0.117zM6.125 10.719v0 0zM3.867 5.867l0.164 2.969-0.164 1.922c0 0.078-0.062 0.141-0.133 0.141-0.078 0-0.133-0.062-0.141-0.141l-0.141-1.922 0.141-2.969c0.008-0.078 0.062-0.141 0.141-0.141 0.070 0 0.133 0.062 0.133 0.141zM4.602 5.195l0.148 3.656-0.148 1.906c0 0.086-0.070 0.148-0.148 0.148-0.086 0-0.148-0.062-0.156-0.148l-0.125-1.906 0.125-3.656c0.008-0.086 0.070-0.148 0.156-0.148 0.078 0 0.148 0.062 0.148 0.148zM5.367 4.883l0.141 3.953-0.141 1.891c-0.008 0.094-0.078 0.164-0.172 0.164-0.086 0-0.156-0.070-0.164-0.164l-0.125-1.891 0.125-3.953c0-0.094 0.078-0.172 0.164-0.172 0.094 0 0.164 0.078 0.172 0.172zM8.43 10.68v0 0 0 0 0 0zM6.883 4.852l0.117 3.984-0.117 1.867c0 0.109-0.086 0.195-0.195 0.195s-0.187-0.086-0.195-0.195l-0.109-1.867 0.109-3.984c0-0.109 0.086-0.195 0.195-0.195s0.195 0.086 0.195 0.195zM7.656 5l0.109 3.844-0.109 1.844c0 0.117-0.094 0.211-0.211 0.211s-0.211-0.094-0.219-0.211l-0.094-1.844 0.094-3.844c0.008-0.125 0.102-0.219 0.219-0.219s0.203 0.094 0.211 0.219zM9.313 8.844l-0.109 1.805c0 0.133-0.109 0.242-0.242 0.242s-0.242-0.109-0.25-0.242l-0.047-0.891-0.047-0.914 0.094-4.969v-0.023c0.008-0.070 0.039-0.141 0.094-0.187 0.039-0.031 0.094-0.055 0.156-0.055 0.039 0 0.086 0.016 0.117 0.039 0.070 0.039 0.117 0.117 0.125 0.203zM18 8.695c0 1.219-0.992 2.203-2.211 2.203h-6.141c-0.133-0.016-0.242-0.117-0.242-0.258v-7.023c0-0.133 0.047-0.195 0.219-0.258 0.43-0.172 0.914-0.266 1.414-0.266 2.039 0 3.711 1.563 3.891 3.555 0.266-0.109 0.555-0.172 0.859-0.172 1.219 0 2.211 0.992 2.211 2.219z"></path>
</symbol>
<symbol id="icon-vine" viewBox="0 0 12 14">
<title>vine</title>
<path d="M11.695 6.461v1.547c-0.547 0.125-1.094 0.18-1.547 0.18-1.094 2.297-3.055 4.266-3.711 4.633-0.414 0.234-0.805 0.25-1.266-0.023-0.805-0.484-3.852-2.984-4.867-10.844h2.211c0.555 4.719 1.914 7.141 3.406 8.953 0.828-0.828 1.625-1.93 2.242-3.172-1.477-0.75-2.375-2.398-2.375-4.32 0-1.945 1.117-3.414 3.031-3.414 1.859 0 2.875 1.156 2.875 3.148 0 0.742-0.156 1.586-0.453 2.234 0 0-1.375 0.273-1.883-0.609 0.102-0.336 0.242-0.914 0.242-1.438 0-0.93-0.336-1.383-0.844-1.383-0.539 0-0.914 0.508-0.914 1.484 0 1.992 1.266 3.133 2.906 3.133 0.289 0 0.617-0.031 0.945-0.109z"></path>
</symbol>
<symbol id="icon-codepen" viewBox="0 0 14 14">
<title>codepen</title>
<path d="M1.688 9.133l4.711 3.141v-2.805l-2.609-1.742zM1.203 8.008l1.508-1.008-1.508-1.008v2.016zM7.602 12.273l4.711-3.141-2.102-1.406-2.609 1.742v2.805zM7 8.422l2.125-1.422-2.125-1.422-2.125 1.422zM3.789 6.273l2.609-1.742v-2.805l-4.711 3.141zM11.289 7l1.508 1.008v-2.016zM10.211 6.273l2.102-1.406-4.711-3.141v2.805zM14 4.867v4.266c0 0.195-0.102 0.391-0.266 0.5l-6.398 4.266c-0.102 0.062-0.219 0.102-0.336 0.102s-0.234-0.039-0.336-0.102l-6.398-4.266c-0.164-0.109-0.266-0.305-0.266-0.5v-4.266c0-0.195 0.102-0.391 0.266-0.5l6.398-4.266c0.102-0.062 0.219-0.102 0.336-0.102s0.234 0.039 0.336 0.102l6.398 4.266c0.164 0.109 0.266 0.305 0.266 0.5z"></path>
</symbol>
<symbol id="icon-slideshare" viewBox="0 0 14 14">
<title>slideshare</title>
<path d="M6.82 5.781c0 0.867-0.758 1.578-1.688 1.578s-1.688-0.711-1.688-1.578c0-0.875 0.758-1.578 1.688-1.578s1.688 0.703 1.688 1.578zM10.742 5.781c0 0.867-0.75 1.578-1.688 1.578-0.93 0-1.688-0.711-1.688-1.578 0-0.875 0.758-1.578 1.688-1.578 0.937 0 1.688 0.703 1.688 1.578zM12.5 7.187v-5.211c0-0.898-0.289-1.25-1.117-1.25h-8.688c-0.867 0-1.109 0.297-1.109 1.25v5.258c1.852 0.969 3.438 0.797 4.305 0.766 0.367-0.008 0.602 0.062 0.742 0.211 0.023 0.023 0.047 0.047 0.078 0.070 0.164 0.156 0.32 0.281 0.477 0.398 0.031-0.43 0.273-0.703 0.922-0.68 0.883 0.039 2.508 0.211 4.391-0.813zM13.773 7.148c-0.5 0.617-1.453 1.375-2.906 1.969 1.539 5.242-3.758 6.078-3.672 3.391 0 0.047-0.008-1.445-0.008-2.555-0.117-0.023-0.234-0.055-0.375-0.086 0 1.117-0.008 2.687-0.008 2.641 0.086 2.687-5.211 1.852-3.672-3.391-1.453-0.594-2.406-1.352-2.906-1.969-0.25-0.375 0.023-0.773 0.438-0.484 0.055 0.039 0.117 0.078 0.172 0.117v-5.422c0-0.75 0.563-1.359 1.258-1.359h9.82c0.695 0 1.258 0.609 1.258 1.359v5.422l0.164-0.117c0.414-0.289 0.688 0.109 0.438 0.484z"></path>
</symbol>
<symbol id="icon-twitch" viewBox="0 0 14 14">
<title>twitch</title>
<path d="M7 3.391v3.391h-1.133v-3.391h1.133zM10.109 3.391v3.391h-1.133v-3.391h1.133zM10.109 9.328l1.977-1.984v-6.211h-9.328v8.195h2.547v1.695l1.695-1.695h3.109zM13.219 0v7.914l-3.391 3.391h-2.547l-1.695 1.695h-1.695v-1.695h-3.109v-9.047l0.852-2.258h11.586z"></path>
</symbol>
<symbol id="icon-yelp" viewBox="0 0 12 14">
<title>yelp</title>
<path d="M6.039 10.305v0.992c-0.008 2.203-0.008 2.281-0.047 2.383-0.062 0.164-0.203 0.273-0.398 0.312-0.563 0.094-2.32-0.555-2.687-0.992-0.078-0.086-0.117-0.187-0.133-0.281-0.008-0.070 0.008-0.141 0.031-0.203 0.039-0.109 0.109-0.195 1.68-2.055 0 0 0.008 0 0.469-0.547 0.156-0.195 0.438-0.258 0.695-0.164 0.258 0.102 0.398 0.32 0.391 0.555zM4.875 8.344c-0.016 0.273-0.172 0.477-0.406 0.547l-0.937 0.305c-2.102 0.672-2.172 0.688-2.281 0.688-0.172-0.008-0.328-0.109-0.422-0.281-0.062-0.125-0.109-0.336-0.133-0.586-0.086-0.766 0.016-1.914 0.242-2.273 0.109-0.172 0.266-0.258 0.437-0.25 0.117 0 0.211 0.047 2.477 0.969 0 0-0.008 0.008 0.656 0.266 0.234 0.094 0.383 0.336 0.367 0.617zM11.328 10.664c-0.078 0.563-1.242 2.039-1.773 2.25-0.18 0.070-0.359 0.055-0.492-0.055-0.094-0.070-0.187-0.211-1.438-2.242l-0.367-0.602c-0.141-0.219-0.117-0.5 0.062-0.719 0.172-0.211 0.422-0.281 0.648-0.203 0 0 0.008 0.008 0.93 0.312 2.102 0.688 2.172 0.711 2.258 0.781 0.141 0.109 0.203 0.273 0.172 0.477zM6.078 5.727c0.039 0.813-0.305 0.914-0.422 0.953-0.109 0.031-0.453 0.133-0.891-0.555-2.875-4.539-2.953-4.672-2.953-4.672-0.039-0.164 0.008-0.344 0.148-0.484 0.43-0.445 2.766-1.102 3.375-0.945 0.195 0.047 0.336 0.172 0.383 0.352 0.031 0.195 0.312 4.406 0.359 5.352zM11.25 6.57c0.016 0.195-0.055 0.359-0.203 0.461-0.094 0.062-0.187 0.094-2.57 0.672-0.383 0.086-0.594 0.141-0.711 0.18l0.008-0.016c-0.234 0.062-0.5-0.047-0.648-0.281s-0.141-0.492 0-0.68c0 0 0.008-0.008 0.586-0.797 1.281-1.75 1.344-1.836 1.438-1.898 0.148-0.102 0.328-0.102 0.508-0.016 0.508 0.242 1.531 1.766 1.594 2.352v0.023z"></path>
</symbol>
<symbol id="icon-pinterest-p" viewBox="0 0 10 14">
<title>pinterest-p</title>
<path d="M0 4.664c0-2.883 2.641-4.664 5.312-4.664 2.453 0 4.687 1.688 4.687 4.273 0 2.43-1.242 5.125-4.008 5.125-0.656 0-1.484-0.328-1.805-0.937-0.594 2.352-0.547 2.703-1.859 4.5l-0.109 0.039-0.070-0.078c-0.047-0.492-0.117-0.977-0.117-1.469 0-1.594 0.734-3.898 1.094-5.445-0.195-0.398-0.25-0.883-0.25-1.32 0-0.789 0.547-1.789 1.438-1.789 0.656 0 1.008 0.5 1.008 1.117 0 1.016-0.688 1.969-0.688 2.953 0 0.672 0.555 1.141 1.203 1.141 1.797 0 2.352-2.594 2.352-3.977 0-1.852-1.313-2.859-3.086-2.859-2.062 0-3.656 1.484-3.656 3.578 0 1.008 0.617 1.523 0.617 1.766 0 0.203-0.148 0.922-0.406 0.922-0.039 0-0.094-0.016-0.133-0.023-1.117-0.336-1.523-1.828-1.523-2.852z"></path>
</symbol>
<symbol id="icon-medium" viewBox="0 0 14 14">
<title>medium</title>
<path d="M4.664 3.289v9.164c0 0.242-0.117 0.469-0.383 0.469-0.094 0-0.18-0.023-0.258-0.062l-3.633-1.82c-0.219-0.109-0.391-0.391-0.391-0.625v-8.906c0-0.195 0.094-0.375 0.305-0.375 0.125 0 0.234 0.062 0.344 0.117l3.992 2c0.008 0.008 0.023 0.031 0.023 0.039zM5.164 4.078l4.172 6.766-4.172-2.078v-4.687zM14 4.219v8.234c0 0.258-0.148 0.438-0.406 0.438-0.133 0-0.258-0.039-0.367-0.102l-3.445-1.719zM13.977 3.281c0 0.031-4.039 6.586-4.352 7.086l-3.047-4.953 2.531-4.117c0.086-0.141 0.242-0.219 0.406-0.219 0.070 0 0.141 0.016 0.203 0.047l4.227 2.109c0.016 0.008 0.031 0.023 0.031 0.047z"></path>
</symbol>
<symbol id="icon-get-pocket" viewBox="0 0 13 14">
<title>get-pocket</title>
<path d="M12.227 1c0.68 0 1.211 0.547 1.211 1.219v4.055c0 3.742-2.992 6.727-6.711 6.727-3.734 0-6.727-2.984-6.727-6.727v-4.055c0-0.664 0.555-1.219 1.219-1.219h11.008zM6.727 9.313c0.234 0 0.469-0.094 0.641-0.258l3.156-3.031c0.18-0.172 0.289-0.414 0.289-0.664 0-0.508-0.414-0.922-0.922-0.922-0.242 0-0.469 0.094-0.641 0.258l-2.523 2.422-2.523-2.422c-0.172-0.164-0.398-0.258-0.633-0.258-0.508 0-0.922 0.414-0.922 0.922 0 0.25 0.102 0.492 0.281 0.664l3.164 3.031c0.164 0.164 0.398 0.258 0.633 0.258z"></path>
</symbol>
<symbol id="icon-500px" viewBox="0 0 11 14">
<title>500px</title>
<path d="M10.945 12.086l-0.047 0.047c-0.586 0.586-1.266 1.047-2.023 1.367-0.789 0.328-1.617 0.5-2.477 0.5s-1.695-0.172-2.477-0.5c-0.758-0.32-1.445-0.781-2.023-1.367-0.586-0.578-1.047-1.258-1.367-2.016-0.195-0.477-0.352-0.969-0.422-1.477v0c-0.031-0.219 0.273-0.266 0.375-0.281 0.242-0.039 0.406-0.023 0.438 0.156 0.008 0.008 0.008 0.016 0.008 0.031 0.031 0.156 0.109 0.625 0.359 1.242 0.258 0.641 0.656 1.234 1.187 1.766 0.508 0.508 1.102 0.906 1.766 1.187 0.68 0.289 1.406 0.438 2.156 0.438 0.742 0 1.469-0.148 2.156-0.438 0.656-0.281 1.25-0.68 1.758-1.187l0.047-0.047c0.055-0.055 0.117-0.070 0.195-0.047 0.070 0.016 0.156 0.078 0.258 0.172v0c0.25 0.258 0.195 0.383 0.133 0.453zM7.258 7.281l-0.516 0.516 0.492 0.492c0.055 0.055 0.156 0.172-0.055 0.383-0.086 0.086-0.172 0.133-0.25 0.133-0.055 0-0.102-0.023-0.148-0.078l-0.484-0.477-0.516 0.516c-0.016 0.016-0.055 0.039-0.117 0.039-0.070 0-0.156-0.039-0.242-0.125l-0.016-0.016c-0.055-0.047-0.141-0.133-0.141-0.227 0-0.047 0.023-0.086 0.062-0.133l0.516-0.508-0.516-0.516c-0.086-0.086-0.047-0.195 0.109-0.352 0.094-0.094 0.172-0.141 0.242-0.141 0.039 0 0.070 0.016 0.102 0.039l0.508 0.516 0.508-0.508c0.086-0.086 0.227-0.047 0.375 0.102 0.094 0.094 0.195 0.227 0.086 0.344zM10.938 7.727c0 0.617-0.125 1.219-0.359 1.781-0.234 0.547-0.563 1.031-0.984 1.453s-0.914 0.75-1.461 0.984c-0.563 0.242-1.164 0.359-1.781 0.359s-1.219-0.117-1.781-0.359c-0.547-0.234-1.039-0.563-1.461-0.984s-0.75-0.906-0.977-1.453c-0.047-0.102-0.117-0.297-0.117-0.312h-0.008c-0.070-0.219 0.242-0.312 0.336-0.344 0.227-0.070 0.398-0.102 0.469 0.094 0.187 0.5 0.477 0.984 0.758 1.305h0.008v-2.664c0.016-0.656 0.289-1.32 0.797-1.812 0.523-0.516 1.227-0.805 1.977-0.805 1.531 0 2.773 1.234 2.773 2.75 0 1.531-1.25 2.773-2.773 2.773-0.305 0-0.531-0.023-0.875-0.125-0.039-0.016-0.219-0.094-0.102-0.477 0.031-0.102 0.125-0.398 0.344-0.336 0.016 0 0.398 0.094 0.602 0.094 1.086 0 1.937-0.844 1.937-1.922 0-0.508-0.203-0.984-0.563-1.336-0.359-0.359-0.844-0.555-1.367-0.555-0.539 0-1.031 0.219-1.391 0.625-0.312 0.352-0.5 0.82-0.5 1.25v3.227c0.563 0.344 1.211 0.523 1.891 0.523 1 0 1.969-0.398 2.664-1.094 0.703-0.703 1.094-1.648 1.094-2.641 0-1-0.391-1.937-1.102-2.648-0.703-0.703-1.641-1.094-2.648-1.094s-1.953 0.391-2.656 1.094c-0.008 0.008-0.453 0.469-0.602 0.68l-0.016 0.016c-0.094 0.133-0.18 0.258-0.57 0.172-0.195-0.047-0.406-0.164-0.406-0.336v-5.312c0-0.141 0.109-0.297 0.297-0.297h6.852c0.234 0 0.234 0.328 0.234 0.43 0 0.109 0 0.43-0.234 0.43h-6.336v3.773h0.008c0.438-0.461 1.195-0.945 1.641-1.133 0.555-0.234 1.18-0.359 1.805-0.359 0.617 0 1.219 0.117 1.781 0.359 0.547 0.234 1.039 0.563 1.461 0.984s0.75 0.906 0.984 1.453c0.234 0.57 0.359 1.164 0.359 1.789zM10.695 3.188c0.148 0.133 0.047 0.273-0.102 0.445-0.094 0.094-0.195 0.203-0.305 0.203-0.047 0-0.086-0.016-0.125-0.055-0.563-0.484-1.070-0.813-1.617-1.039-0.68-0.297-1.406-0.438-2.156-0.438-0.664 0-1.391 0.133-2.047 0.383-0.203 0.078-0.312-0.187-0.352-0.289-0.047-0.125-0.070-0.227-0.062-0.297 0.016-0.078 0.055-0.133 0.125-0.156 0.641-0.281 1.516-0.445 2.336-0.445 0.852 0 1.688 0.172 2.469 0.5 0.719 0.305 1.305 0.68 1.836 1.187z"></path>
</symbol>
<symbol id="icon-amazon" viewBox="0 0 14 14">
<title>amazon</title>
<path d="M12.117 11.531c0.234-0.117 0.414 0.062 0.172 0.375s-2.188 2.094-5.453 2.094-5.766-2.234-6.531-3.156c-0.211-0.242 0.031-0.352 0.172-0.258 2.289 1.391 5.867 3.68 11.641 0.945zM13.734 10.633c0.117 0.156 0 0.844-0.203 1.344-0.203 0.492-0.5 0.836-0.664 0.969-0.172 0.141-0.297 0.086-0.203-0.117s0.602-1.453 0.398-1.719c-0.203-0.258-1.156-0.133-1.5-0.102-0.336 0.031-0.406 0.062-0.438-0.008-0.070-0.18 0.68-0.484 1.172-0.547 0.492-0.055 1.281-0.023 1.438 0.18zM10.656 7.172c0 0.859 1.008 1.648 1.008 1.648l-1.773 1.75c-0.695-0.656-1.219-1.203-1.219-1.203-0.078-0.078-0.141-0.172-0.195-0.258-1.414 2.211-5.734 2.070-5.734-1.352 0-3.188 3.773-3.617 5.297-3.672v-0.992c0-0.211 0.078-1.172-1.109-1.172 0 0-1.187 0-1.695 1.547l-2.297-0.211c0-1.539 1.461-3.258 4.211-3.258 2.742 0 3.508 1.781 3.508 2.57v4.602zM5.406 7.336c0 1.586 2.633 1.961 2.633-0.539v-1.266c-1.055 0.031-2.633 0.328-2.633 1.805z"></path>
</symbol>
<symbol id="icon-vimeo" viewBox="0 0 14 14">
<title>vimeo</title>
<path d="M13.352 4.047c-0.055 1.234-0.922 2.93-2.594 5.086-1.734 2.242-3.188 3.367-4.391 3.367-0.742 0-1.367-0.688-1.875-2.055-0.344-1.25-0.688-2.508-1.031-3.766-0.375-1.367-0.789-2.047-1.227-2.047-0.094 0-0.422 0.195-0.992 0.594l-0.602-0.766c0.625-0.555 1.242-1.117 1.859-1.656 0.828-0.734 1.461-1.102 1.883-1.141 0.992-0.094 1.594 0.578 1.828 2.023 0.242 1.563 0.422 2.539 0.516 2.914 0.289 1.297 0.594 1.945 0.937 1.945 0.266 0 0.664-0.414 1.203-1.258 0.531-0.844 0.813-1.484 0.852-1.922 0.070-0.727-0.211-1.086-0.852-1.086-0.305 0-0.617 0.070-0.945 0.203 0.625-2.047 1.82-3.039 3.586-2.984 1.305 0.039 1.922 0.891 1.844 2.547z"></path>
</symbol>
<symbol id="icon-reddit-alien" viewBox="0 0 14 14">
<title>reddit-alien</title>
<path d="M14 6.609c0 0.609-0.344 1.133-0.852 1.391 0.062 0.242 0.094 0.492 0.094 0.75 0 2.469-2.789 4.469-6.227 4.469-3.43 0-6.219-2-6.219-4.469 0-0.25 0.031-0.5 0.086-0.734-0.523-0.258-0.883-0.789-0.883-1.406 0-0.859 0.695-1.555 1.555-1.555 0.445 0 0.844 0.187 1.133 0.492 1.055-0.734 2.461-1.211 4.023-1.266l0.906-4.070c0.031-0.141 0.18-0.234 0.32-0.203l2.883 0.633c0.187-0.375 0.586-0.641 1.039-0.641 0.648 0 1.172 0.523 1.172 1.164 0 0.648-0.523 1.172-1.172 1.172-0.641 0-1.164-0.523-1.164-1.164l-2.609-0.578-0.813 3.687c1.57 0.047 2.992 0.516 4.055 1.25 0.281-0.297 0.68-0.477 1.117-0.477 0.859 0 1.555 0.695 1.555 1.555zM3.266 8.164c0 0.648 0.523 1.172 1.164 1.172 0.648 0 1.172-0.523 1.172-1.172 0-0.641-0.523-1.164-1.172-1.164-0.641 0-1.164 0.523-1.164 1.164zM9.594 10.938c0.117-0.117 0.117-0.289 0-0.406-0.109-0.109-0.289-0.109-0.398 0-0.469 0.477-1.477 0.641-2.195 0.641s-1.727-0.164-2.195-0.641c-0.109-0.109-0.289-0.109-0.398 0-0.117 0.109-0.117 0.289 0 0.406 0.742 0.742 2.172 0.797 2.594 0.797s1.852-0.055 2.594-0.797zM9.57 9.336c0.641 0 1.164-0.523 1.164-1.172 0-0.641-0.523-1.164-1.164-1.164-0.648 0-1.172 0.523-1.172 1.164 0 0.648 0.523 1.172 1.172 1.172z"></path>
</symbol>
<symbol id="icon-snapchat-ghost" viewBox="0 0 13 14">
<title>snapchat-ghost</title>
<path d="M6.625 1c1.406-0.016 2.57 0.773 3.156 2.039 0.18 0.383 0.211 0.977 0.211 1.398 0 0.5-0.039 0.992-0.070 1.492 0.062 0.031 0.148 0.055 0.219 0.055 0.281 0 0.516-0.211 0.797-0.211 0.266 0 0.648 0.187 0.648 0.5 0 0.75-1.57 0.609-1.57 1.266 0 0.117 0.047 0.227 0.094 0.336 0.375 0.82 1.086 1.609 1.93 1.961 0.203 0.086 0.406 0.133 0.625 0.18 0.141 0.031 0.219 0.133 0.219 0.273 0 0.531-1.352 0.75-1.711 0.805-0.156 0.242-0.039 0.813-0.453 0.813-0.32 0-0.641-0.102-0.984-0.102-0.164 0-0.328 0.008-0.484 0.039-0.93 0.156-1.242 1.156-2.766 1.156-1.469 0-1.82-1-2.727-1.156-0.164-0.031-0.328-0.039-0.492-0.039-0.352 0-0.688 0.117-0.969 0.117-0.438 0-0.305-0.578-0.469-0.828-0.359-0.055-1.711-0.273-1.711-0.805 0-0.141 0.078-0.242 0.219-0.273 0.219-0.047 0.422-0.094 0.625-0.18 0.836-0.344 1.563-1.141 1.93-1.961 0.047-0.109 0.094-0.219 0.094-0.336 0-0.656-1.578-0.531-1.578-1.258 0-0.305 0.359-0.5 0.633-0.5 0.242 0 0.484 0.203 0.789 0.203 0.086 0 0.172-0.016 0.25-0.055-0.031-0.492-0.070-0.984-0.070-1.484 0-0.422 0.031-1.023 0.211-1.406 0.688-1.484 1.852-2.023 3.406-2.039z"></path>
</symbol>
<symbol id="icon-bandcamp" viewBox="0 0 14 14">
<title>bandcamp</title>
<path d="M8.359 9.203l2.391-4.406h-5.109l-2.391 4.406h5.109zM14 7c0 3.867-3.133 7-7 7s-7-3.133-7-7 3.133-7 7-7 7 3.133 7 7z"></path>
</symbol>
<symbol id="icon-etsy" viewBox="0 0 12 14">
<title>etsy</title>
<path d="M4.047 1.43v5.117c1.812 0.016 2.766-0.078 2.766-0.078 0.734-0.023 0.844-0.211 1.016-0.93l0.258-1.109h0.805l-0.109 2.516 0.055 2.492h-0.805l-0.227-0.992c-0.164-0.742-0.484-0.922-1.008-0.93 0 0-0.672-0.062-2.75-0.062v4.344c0 0.813 0.445 1.195 1.383 1.195h2.789c0.937 0 1.781-0.094 2.359-1.43l0.727-1.688h0.695c-0.055 0.336-0.43 3.438-0.484 4.125-2.57-0.094-3.672-0.094-3.672-0.094h-4.906l-2.937 0.094v-0.797l0.992-0.195c0.695-0.133 0.906-0.336 0.914-0.906 0.047-1.891 0.062-5.023 0.062-5.023s0.023-3.141-0.062-5.039c-0.023-0.648-0.219-0.805-0.914-0.937l-0.992-0.187v-0.797l2.937 0.094h5.484s1.086 0 2.922-0.211c-0.109 1.195-0.242 3.953-0.242 3.953h-0.727l-0.25-0.969c-0.305-1.211-0.711-1.859-1.461-1.859h-4.281c-0.32 0-0.336 0.109-0.336 0.305z"></path>
</symbol>
<symbol id="icon-meetup" viewBox="0 0 15 14">
<title>meetup</title>
<path d="M10.422 9.641c-0.086-0.563-1.117-0.125-1.18-0.742-0.086-0.875 1.195-2.766 1.094-3.5-0.094-0.656-0.531-0.797-0.914-0.805-0.367-0.008-0.461 0.055-0.586 0.125-0.078 0.047-0.18 0.133-0.32-0.008-0.172-0.164-0.305-0.32-0.531-0.352-0.336-0.055-0.484 0.055-0.727 0.266-0.094 0.078-0.328 0.352-0.547 0.25-0.094-0.047-0.422-0.211-0.656-0.312-0.445-0.195-1.094 0.125-1.328 0.547-0.352 0.625-1.039 3.094-1.141 3.422-0.234 0.727 0.297 1.328 1.008 1.289 0.305-0.016 0.5-0.125 0.695-0.477 0.109-0.203 1.141-2.945 1.219-3.078 0.055-0.094 0.242-0.219 0.398-0.141 0.156 0.086 0.187 0.258 0.164 0.414-0.031 0.266-0.766 1.937-0.789 2.125-0.094 0.625 0.734 0.727 1.055 0.109 0.102-0.195 1.25-2.531 1.352-2.687 0.117-0.172 0.203-0.227 0.32-0.219 0.086 0 0.227 0.023 0.195 0.297-0.039 0.258-0.961 1.977-1.062 2.398-0.125 0.563 0.18 1.133 0.68 1.383 0.312 0.156 1.711 0.43 1.602-0.305zM2.992 11.328c0.031 0.156-0.062 0.305-0.219 0.336-0.148 0.031-0.297-0.062-0.328-0.219-0.031-0.148 0.062-0.305 0.211-0.336s0.305 0.062 0.336 0.219zM7.445 13.383c0.125 0.18 0.078 0.422-0.094 0.547-0.18 0.125-0.422 0.078-0.547-0.102-0.117-0.18-0.070-0.422 0.102-0.547 0.18-0.125 0.422-0.078 0.539 0.102zM1.383 7.039c-0.187 0.281-0.563 0.352-0.836 0.156-0.273-0.187-0.344-0.57-0.156-0.844 0.187-0.281 0.563-0.352 0.836-0.164 0.273 0.195 0.344 0.57 0.156 0.852zM11.461 12.328c0.195 0.289 0.125 0.688-0.164 0.891-0.289 0.195-0.68 0.125-0.875-0.164s-0.125-0.688 0.156-0.891c0.289-0.203 0.68-0.125 0.883 0.164zM12.336 7.609c0.719 1.18 0.414 2.734-0.719 3.531-0.477 0.336-1.016 0.484-1.555 0.469-0.328 1.289-1.898 1.766-2.875 0.891-0.031 0.023-0.070 0.047-0.102 0.078-1.070 0.742-2.523 0.477-3.266-0.609-0.266-0.391-0.398-0.836-0.414-1.281-1.789-0.297-2.461-2.57-1.125-3.82-0.773-1.281 0.016-2.937 1.461-3.141 0.688-1.812 2.945-2.672 4.477-1.484 1.844-0.609 3.727 0.805 3.578 2.766 1.125 0.344 1.445 1.828 0.539 2.602zM3.555 2.453c0.141 0.211 0.094 0.5-0.117 0.648-0.203 0.141-0.492 0.094-0.633-0.117s-0.094-0.5 0.117-0.648c0.203-0.141 0.492-0.094 0.633 0.117zM4.797 0.258c0.039 0.172-0.070 0.344-0.242 0.383s-0.344-0.070-0.383-0.25c-0.031-0.172 0.078-0.344 0.25-0.383s0.344 0.070 0.375 0.25zM14.062 7.664c0.047 0.211-0.086 0.414-0.289 0.453-0.203 0.047-0.406-0.086-0.445-0.289-0.047-0.211 0.086-0.414 0.289-0.461 0.203-0.039 0.406 0.094 0.445 0.297zM8.875 0.688c0.164 0.281 0.078 0.656-0.211 0.828-0.281 0.172-0.648 0.078-0.813-0.203-0.172-0.289-0.078-0.664 0.203-0.836s0.648-0.078 0.82 0.211zM14.703 5.813c0.039 0.156-0.062 0.305-0.211 0.344-0.156 0.031-0.305-0.070-0.336-0.219-0.031-0.156 0.062-0.312 0.219-0.344 0.148-0.031 0.297 0.062 0.328 0.219zM13.211 3.93c0.156 0.234 0.102 0.555-0.125 0.719-0.234 0.156-0.555 0.102-0.711-0.133s-0.102-0.555 0.133-0.719c0.227-0.164 0.547-0.102 0.703 0.133z"></path>
</symbol>
<symbol id="icon-star" viewBox="0 0 13 14">
<title>star</title>
<path d="M13 5.055c0 0.141-0.102 0.273-0.203 0.375l-2.836 2.766 0.672 3.906c0.008 0.055 0.008 0.102 0.008 0.156 0 0.203-0.094 0.391-0.32 0.391-0.109 0-0.219-0.039-0.312-0.094l-3.508-1.844-3.508 1.844c-0.102 0.055-0.203 0.094-0.312 0.094-0.227 0-0.328-0.187-0.328-0.391 0-0.055 0.008-0.102 0.016-0.156l0.672-3.906-2.844-2.766c-0.094-0.102-0.195-0.234-0.195-0.375 0-0.234 0.242-0.328 0.438-0.359l3.922-0.57 1.758-3.555c0.070-0.148 0.203-0.32 0.383-0.32s0.312 0.172 0.383 0.32l1.758 3.555 3.922 0.57c0.187 0.031 0.438 0.125 0.438 0.359z"></path>
</symbol>
</defs>
</svg>
